<svg xmlns="http://www.w3.org/2000/svg" width="128" height="128" viewBox="0 0 128 128" role="img" aria-labelledby="title">
  <title id="title">Path traversal finding</title>
  <defs><linearGradient id="base" x1="0" y1="0" x2="1" y2="1"><stop stop-color="#213d69"/><stop offset="1" stop-color="#182744"/></linearGradient></defs>
  <rect width="128" height="128" rx="28" fill="url(#base)"/>
  <path d="M22 44h33l8 9h43v40a8 8 0 0 1-8 8H30a8 8 0 0 1-8-8z" fill="#4fc4d8" opacity=".16" stroke="#79dcdf" stroke-width="4" stroke-linejoin="round"/>
  <path d="M39 79h29" fill="none" stroke="#c7f9f3" stroke-width="5" stroke-linecap="round"/>
  <path d="m61 68 11 11-11 11" fill="none" stroke="#c7f9f3" stroke-width="5" stroke-linecap="round" stroke-linejoin="round"/>
  <path d="M83 75v-9m0 0-7 7m7-7 7 7" fill="none" stroke="#ffbc76" stroke-width="5" stroke-linecap="round" stroke-linejoin="round"/>
  <circle cx="97" cy="32" r="10" fill="#ffbc76"/>
  <path d="M97 27v6m0 4h.01" fill="none" stroke="#1a2940" stroke-width="3" stroke-linecap="round"/>
</svg>
